# xmcd CD database file
#
# Track frame offsets:
#	150
#	30825
#	59665
#	100133
#	130880
#	168773
#	213845
#
# Disc length: 3280 seconds
#
# Revision: 0
# Processed by: cddbd v1.5.1PL2 Copyright (c) Steve Scherf et al.
# Submitted via: CDex 1.51
#
DISCID=530cce07
DTITLE=Ralph Bowen Quintet - Movin´on
DYEAR=1900
DGENRE=Jazz
TTITLE0=Movin´on 
TTITLE1=A Little Silver in my Pocket
TTITLE2=Convergence
TTITLE3=For You
TTITLE4=Just Reconnoitering
TTITLE5=Altitudes
TTITLE6=Thru Traffic
EXTD=
EXTT0=
EXTT1=
EXTT2=
EXTT3=
EXTT4=
EXTT5=
EXTT6=
PLAYORDER=
